<mxfile host="www.draw.io" modified="2019-12-16T16:13:52.885Z" agent="Mozilla/5.0 (Windows NT 10.0; Win64; x64) AppleWebKit/537.36 (KHTML, like Gecko) Chrome/78.0.3904.108 Safari/537.36" etag="KpR0DEzsHgFRQNRFsgwj" version="12.4.2" type="github" pages="1">
  <diagram id="aksjhuVw7HBsWx2L7Y8Z" name="第 1 页">
    <mxGraphModel dx="981" dy="548" grid="1" gridSize="10" guides="1" tooltips="1" connect="1" arrows="1" fold="1" page="1" pageScale="1" pageWidth="827" pageHeight="1169" math="0" shadow="0">
      <root>
        <mxCell id="0"/>
        <mxCell id="1" parent="0"/>
        <mxCell id="CsroSSViKWkw9e1dPLZ9-1" value="&lt;font color=&quot;#666666&quot;&gt;BattleReplayFile&amp;nbsp;&lt;br&gt;&lt;br&gt;&lt;br&gt;&lt;br&gt;&lt;br&gt;&lt;br&gt;&lt;br&gt;&lt;br&gt;&lt;br&gt;&lt;br&gt;&lt;br&gt;&lt;br&gt;&lt;br&gt;&lt;br&gt;&lt;br&gt;&lt;br&gt;&lt;br&gt;&lt;br&gt;&lt;br&gt;&lt;br&gt;&lt;br&gt;&lt;br&gt;&lt;br&gt;&lt;br&gt;&lt;br&gt;&lt;br&gt;&lt;br&gt;&lt;/font&gt;" style="rounded=1;whiteSpace=wrap;html=1;arcSize=4;fillColor=none;strokeColor=#666666;fontColor=#333333;" vertex="1" parent="1">
          <mxGeometry x="80" y="100" width="350" height="410" as="geometry"/>
        </mxCell>
        <mxCell id="CsroSSViKWkw9e1dPLZ9-2" value="&lt;font color=&quot;#666666&quot;&gt;Name&lt;/font&gt;" style="rounded=1;whiteSpace=wrap;html=1;fillColor=#f5f5f5;strokeColor=#666666;fontColor=#333333;" vertex="1" parent="1">
          <mxGeometry x="180" y="140" width="70" height="30" as="geometry"/>
        </mxCell>
        <mxCell id="CsroSSViKWkw9e1dPLZ9-3" value="&lt;font color=&quot;#666666&quot;&gt;ExtInfoKeys&lt;/font&gt;" style="rounded=1;whiteSpace=wrap;html=1;fillColor=#f5f5f5;strokeColor=#666666;fontColor=#333333;" vertex="1" parent="1">
          <mxGeometry x="180" y="180" width="70" height="30" as="geometry"/>
        </mxCell>
        <mxCell id="CsroSSViKWkw9e1dPLZ9-4" value="&lt;font color=&quot;#666666&quot;&gt;ExtInfoValues&lt;/font&gt;" style="rounded=1;whiteSpace=wrap;html=1;fillColor=#f5f5f5;strokeColor=#666666;fontColor=#333333;" vertex="1" parent="1">
          <mxGeometry x="260" y="180" width="70" height="30" as="geometry"/>
        </mxCell>
        <mxCell id="CsroSSViKWkw9e1dPLZ9-5" value="&lt;font color=&quot;#666666&quot;&gt;Id&lt;/font&gt;" style="rounded=1;whiteSpace=wrap;html=1;fillColor=#f8cecc;strokeColor=#b85450;" vertex="1" parent="1">
          <mxGeometry x="100" y="140" width="70" height="30" as="geometry"/>
        </mxCell>
        <mxCell id="CsroSSViKWkw9e1dPLZ9-7" value="&lt;font color=&quot;#666666&quot;&gt;BattlerInfos [struct]&lt;/font&gt;" style="rounded=1;whiteSpace=wrap;html=1;fillColor=#dae8fc;strokeColor=#6c8ebf;" vertex="1" parent="1">
          <mxGeometry x="100" y="260" width="310" height="30" as="geometry"/>
        </mxCell>
        <mxCell id="CsroSSViKWkw9e1dPLZ9-8" value="&lt;font color=&quot;#666666&quot;&gt;BlocksNum&lt;/font&gt;" style="rounded=1;whiteSpace=wrap;html=1;fillColor=#d5e8d4;strokeColor=#82b366;" vertex="1" parent="1">
          <mxGeometry x="100" y="340" width="310" height="30" as="geometry"/>
        </mxCell>
        <mxCell id="CsroSSViKWkw9e1dPLZ9-12" value="&lt;font color=&quot;#666666&quot; style=&quot;line-height: 120%&quot;&gt;&lt;sup&gt;BatlteReplayFileBlock是真正记录战斗内容的数据结构，&lt;br&gt;RawData字段以字节存放原始战斗协议数据&lt;/sup&gt;&lt;br&gt;&lt;br&gt;&lt;br&gt;&lt;br&gt;&lt;br&gt;&lt;br&gt;&lt;br&gt;&lt;br&gt;&lt;br&gt;&lt;br&gt;&lt;br&gt;&lt;br&gt;&lt;br&gt;&lt;/font&gt;" style="rounded=1;whiteSpace=wrap;html=1;arcSize=4;fillColor=#d5e8d4;strokeColor=#82b366;shadow=1;comic=1;" vertex="1" parent="1">
          <mxGeometry x="470" y="280" width="310" height="230" as="geometry"/>
        </mxCell>
        <mxCell id="CsroSSViKWkw9e1dPLZ9-13" value="&lt;font color=&quot;#666666&quot;&gt;Timestamp&lt;/font&gt;" style="rounded=1;whiteSpace=wrap;html=1;fillColor=#f5f5f5;strokeColor=#666666;fontColor=#333333;" vertex="1" parent="1">
          <mxGeometry x="260" y="140" width="70" height="30" as="geometry"/>
        </mxCell>
        <mxCell id="CsroSSViKWkw9e1dPLZ9-14" value="&lt;font color=&quot;#666666&quot;&gt;Desc&lt;/font&gt;" style="rounded=1;whiteSpace=wrap;html=1;fillColor=#f5f5f5;strokeColor=#666666;fontColor=#333333;" vertex="1" parent="1">
          <mxGeometry x="340" y="140" width="70" height="30" as="geometry"/>
        </mxCell>
        <mxCell id="CsroSSViKWkw9e1dPLZ9-15" value="&lt;font color=&quot;#666666&quot;&gt;Rounds&lt;/font&gt;" style="rounded=1;whiteSpace=wrap;html=1;fillColor=#f5f5f5;strokeColor=#666666;fontColor=#333333;" vertex="1" parent="1">
          <mxGeometry x="100" y="180" width="70" height="30" as="geometry"/>
        </mxCell>
        <mxCell id="CsroSSViKWkw9e1dPLZ9-16" value="&lt;font color=&quot;#666666&quot;&gt;CheckSums&lt;/font&gt;" style="rounded=1;whiteSpace=wrap;html=1;fillColor=#f8cecc;strokeColor=#b85450;" vertex="1" parent="1">
          <mxGeometry x="340" y="180" width="70" height="30" as="geometry"/>
        </mxCell>
        <mxCell id="CsroSSViKWkw9e1dPLZ9-19" value="" style="curved=1;endArrow=classic;html=1;" edge="1" parent="1">
          <mxGeometry width="50" height="50" relative="1" as="geometry">
            <mxPoint x="420" y="180" as="sourcePoint"/>
            <mxPoint x="470" y="130" as="targetPoint"/>
            <Array as="points">
              <mxPoint x="470" y="180"/>
              <mxPoint x="420" y="130"/>
            </Array>
          </mxGeometry>
        </mxCell>
        <mxCell id="CsroSSViKWkw9e1dPLZ9-20" value="&lt;div style=&quot;text-align: left&quot;&gt;&lt;span style=&quot;color: rgb(102 , 102 , 102)&quot;&gt;录像Id，名字，时间戳，简介，回合数等概要信息&lt;/span&gt;&lt;/div&gt;&lt;font color=&quot;#666666&quot;&gt;&lt;div style=&quot;text-align: left&quot;&gt;&lt;span&gt;ExtInfo键值对描述设备信息，CheckSums校验数据&lt;/span&gt;&lt;/div&gt;&lt;/font&gt;" style="text;html=1;align=center;verticalAlign=middle;whiteSpace=wrap;rounded=1;shadow=1;comic=1;glass=0;fillColor=#eeeeee;strokeColor=#36393d;" vertex="1" parent="1">
          <mxGeometry x="470" y="100" width="310" height="50" as="geometry"/>
        </mxCell>
        <mxCell id="CsroSSViKWkw9e1dPLZ9-22" value="&lt;font color=&quot;#666666&quot;&gt;点赞，收藏等录像大厅业务信息&lt;/font&gt;" style="text;html=1;align=center;verticalAlign=middle;whiteSpace=wrap;rounded=1;shadow=1;comic=1;glass=0;fillColor=#f9f7ed;strokeColor=#36393d;" vertex="1" parent="1">
          <mxGeometry x="470" y="160" width="310" height="50" as="geometry"/>
        </mxCell>
        <mxCell id="CsroSSViKWkw9e1dPLZ9-23" value="&lt;font color=&quot;#666666&quot;&gt;Liked&lt;/font&gt;" style="rounded=1;whiteSpace=wrap;html=1;fillColor=#f9f7ed;strokeColor=#36393d;" vertex="1" parent="1">
          <mxGeometry x="100" y="220" width="70" height="30" as="geometry"/>
        </mxCell>
        <mxCell id="CsroSSViKWkw9e1dPLZ9-24" value="&lt;font color=&quot;#666666&quot;&gt;LikeNum&lt;/font&gt;" style="rounded=1;whiteSpace=wrap;html=1;fillColor=#f9f7ed;strokeColor=#36393d;" vertex="1" parent="1">
          <mxGeometry x="180" y="220" width="70" height="30" as="geometry"/>
        </mxCell>
        <mxCell id="CsroSSViKWkw9e1dPLZ9-25" value="&lt;font color=&quot;#666666&quot;&gt;Collected&lt;/font&gt;" style="rounded=1;whiteSpace=wrap;html=1;fillColor=#f9f7ed;strokeColor=#36393d;" vertex="1" parent="1">
          <mxGeometry x="260" y="220" width="70" height="30" as="geometry"/>
        </mxCell>
        <mxCell id="CsroSSViKWkw9e1dPLZ9-26" value="&lt;font color=&quot;#666666&quot;&gt;CollectNum&lt;/font&gt;" style="rounded=1;whiteSpace=wrap;html=1;fillColor=#f9f7ed;strokeColor=#36393d;" vertex="1" parent="1">
          <mxGeometry x="340" y="220" width="70" height="30" as="geometry"/>
        </mxCell>
        <mxCell id="CsroSSViKWkw9e1dPLZ9-28" value="&lt;font color=&quot;#666666&quot;&gt;BattlerInfos [struct]&lt;/font&gt;" style="rounded=1;whiteSpace=wrap;html=1;fillColor=#dae8fc;strokeColor=#6c8ebf;" vertex="1" parent="1">
          <mxGeometry x="100" y="300" width="310" height="30" as="geometry"/>
        </mxCell>
        <mxCell id="CsroSSViKWkw9e1dPLZ9-29" value="" style="curved=1;endArrow=classic;html=1;" edge="1" parent="1">
          <mxGeometry width="50" height="50" relative="1" as="geometry">
            <mxPoint x="420" y="240" as="sourcePoint"/>
            <mxPoint x="470" y="190" as="targetPoint"/>
            <Array as="points">
              <mxPoint x="470" y="240"/>
              <mxPoint x="420" y="190"/>
            </Array>
          </mxGeometry>
        </mxCell>
        <mxCell id="CsroSSViKWkw9e1dPLZ9-30" value="&lt;font color=&quot;#666666&quot;&gt;双方参战人员概要信息&lt;/font&gt;" style="text;html=1;align=center;verticalAlign=middle;whiteSpace=wrap;rounded=1;shadow=1;comic=1;glass=0;fillColor=#dae8fc;strokeColor=#6c8ebf;" vertex="1" parent="1">
          <mxGeometry x="470" y="220" width="310" height="50" as="geometry"/>
        </mxCell>
        <mxCell id="CsroSSViKWkw9e1dPLZ9-31" value="" style="curved=1;endArrow=classic;html=1;" edge="1" parent="1">
          <mxGeometry width="50" height="50" relative="1" as="geometry">
            <mxPoint x="420" y="300" as="sourcePoint"/>
            <mxPoint x="470" y="250" as="targetPoint"/>
            <Array as="points">
              <mxPoint x="470" y="300"/>
              <mxPoint x="420" y="250"/>
            </Array>
          </mxGeometry>
        </mxCell>
        <mxCell id="CsroSSViKWkw9e1dPLZ9-32" value="&lt;font color=&quot;#666666&quot;&gt;Index [uint32]&lt;/font&gt;" style="rounded=1;whiteSpace=wrap;html=1;fillColor=#f5f5f5;strokeColor=#666666;comic=0;fontColor=#333333;" vertex="1" parent="1">
          <mxGeometry x="480" y="350" width="290" height="30" as="geometry"/>
        </mxCell>
        <mxCell id="CsroSSViKWkw9e1dPLZ9-33" value="&lt;font color=&quot;#666666&quot;&gt;Name [string]&lt;/font&gt;" style="rounded=1;whiteSpace=wrap;html=1;fillColor=#f5f5f5;strokeColor=#666666;comic=0;fontColor=#333333;" vertex="1" parent="1">
          <mxGeometry x="480" y="390" width="290" height="30" as="geometry"/>
        </mxCell>
        <mxCell id="CsroSSViKWkw9e1dPLZ9-34" value="&lt;font color=&quot;#666666&quot;&gt;Timestamp [uint32]&lt;/font&gt;" style="rounded=1;whiteSpace=wrap;html=1;fillColor=#f5f5f5;strokeColor=#666666;comic=0;fontColor=#333333;" vertex="1" parent="1">
          <mxGeometry x="480" y="430" width="290" height="30" as="geometry"/>
        </mxCell>
        <mxCell id="CsroSSViKWkw9e1dPLZ9-35" value="&lt;b&gt;&lt;font color=&quot;#666666&quot; style=&quot;font-size: 15px&quot;&gt;Raw Data [bytes]&lt;/font&gt;&lt;/b&gt;" style="rounded=1;whiteSpace=wrap;html=1;fillColor=#f5f5f5;strokeColor=#666666;comic=0;fontColor=#333333;" vertex="1" parent="1">
          <mxGeometry x="480" y="470" width="290" height="30" as="geometry"/>
        </mxCell>
        <mxCell id="CsroSSViKWkw9e1dPLZ9-36" value="&lt;font color=&quot;#666666&quot;&gt;BattleReplayFileBlock [struct]&lt;/font&gt;" style="rounded=1;whiteSpace=wrap;html=1;fillColor=#d5e8d4;strokeColor=#82b366;" vertex="1" parent="1">
          <mxGeometry x="100" y="380" width="310" height="30" as="geometry"/>
        </mxCell>
        <mxCell id="CsroSSViKWkw9e1dPLZ9-37" value="&lt;font color=&quot;#666666&quot;&gt;...&lt;/font&gt;" style="rounded=1;whiteSpace=wrap;html=1;fillColor=#d5e8d4;strokeColor=#82b366;" vertex="1" parent="1">
          <mxGeometry x="100" y="420" width="310" height="30" as="geometry"/>
        </mxCell>
        <mxCell id="CsroSSViKWkw9e1dPLZ9-38" value="&lt;font color=&quot;#666666&quot;&gt;BattleReplayFileBlock [struct]&lt;/font&gt;" style="rounded=1;whiteSpace=wrap;html=1;fillColor=#d5e8d4;strokeColor=#82b366;" vertex="1" parent="1">
          <mxGeometry x="100" y="460" width="310" height="30" as="geometry"/>
        </mxCell>
        <mxCell id="CsroSSViKWkw9e1dPLZ9-41" value="" style="curved=1;endArrow=classic;html=1;" edge="1" parent="1">
          <mxGeometry width="50" height="50" relative="1" as="geometry">
            <mxPoint x="420" y="390" as="sourcePoint"/>
            <mxPoint x="470" y="340" as="targetPoint"/>
            <Array as="points">
              <mxPoint x="470" y="390"/>
              <mxPoint x="420" y="340"/>
            </Array>
          </mxGeometry>
        </mxCell>
      </root>
    </mxGraphModel>
  </diagram>
</mxfile>
